<svg xmlns="http://www.w3.org/2000/svg" viewBox="0 0 920 560" fill="none">
  <defs>
    <linearGradient id="bg" x1="0" y1="0" x2="1" y2="1">
      <stop stop-color="#FFFFFF"/>
      <stop offset="1" stop-color="#F1F7FF"/>
    </linearGradient>
    <linearGradient id="panel" x1="0" y1="0" x2="1" y2="1">
      <stop stop-color="#0B57D0"/>
      <stop offset="1" stop-color="#08336E"/>
    </linearGradient>
  </defs>
  <rect width="920" height="560" rx="30" fill="url(#bg)"/>
  <circle cx="760" cy="120" r="76" fill="#FFD000" fill-opacity=".55"/>
  <path d="M70 450c170-80 280-75 390 5 120 85 260 65 390 20v85H70v-110Z" fill="#0B57D0" fill-opacity=".08"/>
  <g transform="translate(120 170)">
    <rect x="0" y="0" width="520" height="260" rx="18" fill="url(#panel)"/>
    <path d="M30 40h460M30 90h460M30 140h460M30 190h460" stroke="#FFFFFF" stroke-opacity=".18" stroke-width="2"/>
    <path d="M90 20v220M170 20v220M250 20v220M330 20v220M410 20v220" stroke="#FFFFFF" stroke-opacity=".14" stroke-width="2"/>
    <rect x="20" y="20" width="480" height="220" rx="14" stroke="#FFFFFF" stroke-opacity=".12" stroke-width="2"/>
  </g>
  <g transform="translate(690 290)">
    <rect x="0" y="0" width="170" height="160" rx="18" fill="#FFFFFF" stroke="#E2E8F0" stroke-width="2"/>
    <path d="M50 42h70" stroke="#0B57D0" stroke-width="10" stroke-linecap="round" opacity=".25"/>
    <path d="M35 76h100" stroke="#334155" stroke-width="8" stroke-linecap="round" opacity=".20"/>
    <path d="M35 100h85" stroke="#334155" stroke-width="8" stroke-linecap="round" opacity=".20"/>
    <path d="M66 124 46 156h18l-2 22 22-32H66l2-22Z" fill="#FFD000"/>
  </g>
</svg>

