<svg xmlns="http://www.w3.org/2000/svg" viewBox="0 0 920 640" fill="none">
  <defs>
    <linearGradient id="g" x1="0" y1="0" x2="1" y2="1">
      <stop stop-color="#FFFFFF"/>
      <stop offset="1" stop-color="#F1F7FF"/>
    </linearGradient>
  </defs>
  <rect width="920" height="640" rx="30" fill="url(#g)"/>
  <circle cx="740" cy="170" r="90" fill="#FFD000" fill-opacity=".35"/>
  <rect x="150" y="250" width="520" height="260" rx="28" fill="#FFFFFF" stroke="#E2E8F0" stroke-width="2"/>
  <rect x="210" y="210" width="90" height="50" rx="16" fill="#0B57D0" fill-opacity=".14"/>
  <rect x="520" y="210" width="90" height="50" rx="16" fill="#0B57D0" fill-opacity=".14"/>
  <path d="M220 374h160" stroke="#0B57D0" stroke-width="12" stroke-linecap="round" opacity=".35"/>
  <path d="M220 410h250" stroke="#334155" stroke-width="12" stroke-linecap="round" opacity=".20"/>
  <path d="M720 440c18 0 34-8 44-20l22 0c8 0 14 6 14 14v36h-22a44 44 0 0 1-80 0h-22v-36c0-8 6-14 14-14h22c10 12 26 20 44 20Z" fill="#0B57D0" fill-opacity=".08" stroke="#E2E8F0" stroke-width="2"/>
  <circle cx="698" cy="470" r="12" fill="#0B57D0" fill-opacity=".35"/>
  <circle cx="742" cy="470" r="12" fill="#0B57D0" fill-opacity=".35"/>
</svg>

